<svg xmlns="http://www.w3.org/2000/svg" viewBox="0 0 1280 1280">
  <path d="M655.5 369.7c9.8 0 19.6.4 29.4 1.1 4.6.3 9.2.8 13.8 1.3 2.3.3 4.6.6 6.8.8-6.3-.6 2.7.4 4.2.6 18.5 2.9 36.9 7.2 54.8 12.7 8.7 2.7 17.4 5.8 25.9 9.1 2.1.8 4.1 1.7 6.2 2.5 4.4 1.8-4.2-1.8.1.1.8.4 1.6.7 2.4 1.1 4.5 2 8.9 4 13.2 6.1 16.6 8.1 32.6 17.3 47.9 27.7 3.6 2.5 7.2 5 10.7 7.6 1.8 1.3 3.5 2.6 5.3 3.9.6.5 1.6 1 2.1 1.6-3.4-3.9-.6-.5.6.5 7 5.6 13.9 11.4 20.5 17.4 13.6 12.4 26.2 25.7 37.9 39.9 1.4 1.7 2.8 3.4 4.1 5.1.5.7 1.1 1.4 1.6 2.1 2.9 3.6-2.7-3.6.1.1 2.9 3.9 5.8 7.7 8.5 11.7 5 7.2 9.9 14.5 14.4 22 4.8 7.9 9.3 16 13.5 24.2 2 3.9 3.9 7.9 5.8 11.9.9 2 1.9 4 2.8 6 .5 1.2 1.1 2.4 1.6 3.6.6 1.4 2.8 4.4.1.1 2.3 3.5 3.4 8.5 4.9 12.4 1.7 4.6 3.4 9.2 4.9 13.9 2.9 8.7 5.5 17.6 7.8 26.5 2.3 9 4.3 18.1 5.9 27.2.8 4.5 1.5 9 2.2 13.5.7 4.8-.6-4.7 0 .1l.3 2.7c.3 2.7.6 5.5.9 8.2 1.9 19.5 2.3 39.2 1.3 58.8-.5 9.5-1.4 18.9-2.6 28.3-.4 3 .8-5.1.1-.5-.2 1.1-.3 2.3-.5 3.4-.3 2.3-.7 4.5-1.1 6.8-.8 4.7-1.7 9.4-2.7 14.1-3.8 18.5-9 36.6-15.6 54.3-1.5 4.2-3.2 8.3-4.8 12.4-.3.7-.6 1.8-1 2.5 2.8-4.2.6-1.3-.1.1-1.1 2.4-2.1 4.9-3.3 7.3-3.8 8.2-7.8 16.3-12.2 24.2-8.8 16-18.7 31.3-29.6 45.9-.7.9-1.3 1.7-2 2.6-1.7 2.3 3.1-3.9.3-.4-1.4 1.7-2.7 3.4-4.1 5.1-3 3.7-6.1 7.4-9.3 11-6 6.9-12.3 13.6-18.9 20-6.4 6.3-12.9 12.4-19.7 18.2-3.1 2.7-6.3 5.4-9.6 8-1.6 1.3-3.3 3.1-5.1 4.1 4.4-2.3 1.1-.9-.1.1-1 .8-2.1 1.6-3.2 2.4-14.8 11-30.4 20.9-46.7 29.6-8.2 4.4-16.5 8.5-25 12.3-1.8.8-3.7 1.6-5.5 2.4-2.7 1.2 4.7-1.9.5-.2-1 .4-2.1.8-3.1 1.3-4.3 1.7-8.7 3.4-13.1 5-17.8 6.4-36 11.5-54.5 15.2-4.5.9-8.9 1.7-13.4 2.4-2.3.4-4.5.7-6.8 1-.4.1-4.9.6-1.4.2 3.5-.4-2.2.3-2.8.3-9.4 1.1-18.9 1.9-28.4 2.3-19.9.9-39.8.3-59.6-1.9-2.4-.3-4.7-.5-7.1-.8-5-.6 4.6.7-.4-.1-.9-.1-1.9-.3-2.8-.4-5.2-.8-10.3-1.7-15.4-2.6-9.7-1.9-19.3-4.1-28.8-6.7-9.2-2.5-18.3-5.4-27.3-8.6-4.4-1.6-8.7-3.2-13-4.9-1.1-.4-2.1-.9-3.2-1.3-.3-.1-4.5-1.9-1.4-.6 3.1 1.3-1.1-.5-1.4-.6-1.3-.6-2.5-1.1-3.8-1.7-17.5-7.9-34.5-17.1-50.6-27.5-8-5.2-15.9-10.7-23.5-16.4-.7-.5-1.4-1.1-2.2-1.7 4.4 3.1.6.5-.3-.2-1.8-1.4-3.6-2.8-5.3-4.3-3.7-3-7.3-6.1-10.9-9.3-14.1-12.5-27.3-26-39.5-40.4-2.9-3.5-5.8-7-8.6-10.6-2.8-3.6 2 2.6.2.3l-2.1-2.7c-1.6-2.2-3.3-4.4-4.8-6.6-5.6-7.8-10.9-15.8-15.9-23.9-4.8-7.8-9.2-15.8-13.4-23.9-2.1-4.1-4.1-8.2-6.1-12.3-1-2.1-1.9-4.2-2.9-6.3-.6-1.3-1.1-2.5-1.7-3.8-.4-.9-2.6-5.2-.2-.3-4.2-8.6-7.2-18.2-10.2-27.3-3.3-10-6.2-20.2-8.7-30.4-1.5-6-2.8-12.1-3.9-18.2-.6-3.1-1.1-6.1-1.6-9.2-.2-1.2-.4-2.5-.6-3.7-.2-1.2-.4-2.5-.6-3.7-.3-2.1-.4-2.5-.2-1.1.4 2.9-.4-3.2-.4-3-.2-1.6-.4-3.1-.5-4.7-.3-3.2-.6-6.3-.9-9.5-.5-6.7-.9-13.4-1.1-20.1-.4-13.5-.1-27 .9-40.4.5-6.3 1.1-12.6 1.9-18.9.7-6.2-.6 4 .3-2.2.2-1.2.4-2.5.6-3.7.6-3.7 1.2-7.4 1.9-11.1 4-21.4 9.8-42.5 17.3-63 1.6-4.3 3.3-8.6 5-12.9.5-1.2 1.4-4.3-.1.3.3-1.1.9-2.1 1.4-3.2 1-2.3 2.1-4.6 3.1-6.9 4-8.7 8.4-17.3 13.1-25.7 4.7-8.4 9.6-16.6 14.9-24.6 2.5-3.8 5.1-7.6 7.7-11.3 1.3-1.9 2.7-3.7 4-5.5.5-.7 1.1-1.5 1.6-2.2.7-1 4.1-6.1 1-1.4 5-7.6 11.9-14.6 17.9-21.4 6.2-6.9 12.7-13.6 19.4-20 6.9-6.6 14-12.9 21.4-19 1.8-1.4 3.5-2.9 5.3-4.3l2.7-2.1c2.3-1.8-3.9 3-.3.2 4-3 8-6 12.1-8.9 15.5-10.9 31.8-20.6 48.8-29.1 3.9-1.9 7.8-3.8 11.8-5.6 2.1-1 4.2-1.9 6.3-2.8 1-.4 5.5-2.1.3-.2 1.3-.5 2.6-1.1 3.8-1.6 9-3.7 18.2-7 27.4-9.9 18.6-5.9 37.6-10.4 56.8-13.4 1.2-.2 2.3-.4 3.5-.5.4-.1 5-.8 1.6-.2-3.4.5 1.2-.2 1.6-.2 1.2-.1 2.4-.3 3.6-.4 4.8-.5 9.5-1 14.3-1.4 10.7-.9 20.7-1.3 30.6-1.3 10.5 0 20.5-9.2 20-20s-8.8-20-20-20c-82.6.2-164.8 25.6-232.2 73.6-67.1 47.8-118.3 114.5-146.8 191.8-34.4 93.6-31.9 200.2 6.6 292.1 31.9 75.8 85.9 140.5 155 185.1 69.5 44.8 153.1 67.1 235.7 63.2 79.2-3.7 157-30.7 220.6-78.1 63.7-47.5 112.4-112 139.9-186.6 28.1-76.1 31.7-161.1 11.4-239.5-19.5-75.4-61.6-144.9-119.4-197.1-58.2-52.6-131.6-88.3-209.3-99.7-20.4-3-40.9-4.8-61.5-4.8-10.5 0-20.5 9.2-20 20s8.8 20 20 20z"/>
  <path d="M367.4 333.5l71.7 71.7 10.3 10.3c1.3-10.5 2.7-20.9 4-31.4-61 35-111.9 86.8-147.4 147.4 10.5-1.3 20.9-2.7 31.4-4l-71.7-71.7-10.3-10.3v28.3l47.2-47.2 75.7-75.7 17.3-17.3c7.4-7.4 8-21 0-28.3-8-7.3-20.4-7.9-28.3 0l-47.2 47.2-75.7 75.7-17.3 17.3c-7.6 7.6-7.7 20.6 0 28.3l71.7 71.7 10.3 10.3c9.1 9.1 24.9 7.1 31.4-4 8.2-14.1 17.3-27.6 27.1-40.6-2.5 3.3.6-.8 1.2-1.5 1.5-1.8 2.9-3.7 4.4-5.5 2.6-3.2 5.3-6.3 8-9.4 5.3-6 10.8-11.9 16.5-17.6 5.8-5.8 11.8-11.5 18-16.9 3.2-2.8 6.4-5.6 9.7-8.3 1.6-1.3 3.3-2.7 4.9-4 .6-.5 5.5-4.4 2.3-1.9 13-10 26.7-19.2 41-27.3 11.2-6.4 13.1-22.4 4-31.4l-71.7-71.7-10.3-10.3c-7.4-7.4-21-8-28.3 0-7.2 7.8-7.8 20.2.1 28.1z"/>
  <path d="M320.8 372.9c9.1 7-.5-.6-2.5-2.5-5-4.6-9.6-9.6-13.9-14.8-.5-.6-1-1.3-1.5-1.9 4.9 5.8 2 2.5.9 1.1-1.3-1.8-2.6-3.7-3.9-5.6-2.4-3.7-4.5-7.5-6.4-11.4-.8-1.7-2.2-6 .3 1-.4-1.1-.9-2.1-1.3-3.2-.8-2.2-1.5-4.4-2.1-6.6-.6-2.3-.9-4.6-1.4-6.9-.1-.3.6 6 .4 3.2 0-.6-.1-1.2-.2-1.8-.1-1.3-.2-2.6-.2-3.9 0-2.3.3-4.6.4-6.9.1-2.4-1 5.9-.3 2.7l.3-1.5c.3-1.5.7-3 1.1-4.5.3-1.1.7-2.3 1.1-3.4.2-.6.5-1.2.7-1.9.9-2.7-1.1 2.6-1.1 2.5 1.8-2.5 2.8-5.7 4.5-8.3.7-1.2 1.5-2.3 2.3-3.4 2.4-3.5-3.2 3.7.1-.1 2.4-2.8 4.8-5.5 7.4-8 2.4-2.3 6.4-4.5 8.3-7.2-1.7 2.5-2.7 2-1.1.9 1-.7 2.1-1.5 3.1-2.2 1.8-1.3 3.7-2.5 5.5-3.7 8.6-5.5 17.6-10.3 26.9-14.6 2.6-1.2 5.3-2.4 8-3.5-3.3 1.4-.4.2.3-.1 1.3-.5 2.5-1 3.8-1.5 3.5-1.4 7.1-2.6 10.8-3.7 15.1-4.6 30.6-7.7 45.8-11.9 17.8-4.8 35.1-11.3 49.5-23.1 15.5-12.7 22.6-32.4 22.3-52.1-.2-10.5-9.1-20.5-20-20-10.7.5-20.2 8.8-20 20 0 2 0 4-.1 6-.4 5.7.9-4.1-.2 1.3-.3 1.7-.8 3.4-1.3 5.1-.2.6-.5 1.3-.7 1.9-1.1 3.5 2.4-4.6.2-.7-.7 1.3-1.4 2.5-2.1 3.7-.3.5-1.5 1.7-1.6 2.3.4-2.6 2.9-3.4 1.4-1.8-1.1 1.1-2.1 2.3-3.3 3.4-.6.5-1.2 1.1-1.8 1.6-3.2 3 3.7-2.4.6-.4-2.7 1.7-5.2 3.5-8 5l-4.2 2.1c-.9.4-2 .8-2.9 1.3 1.8-1 4-1.6.8-.4-7 2.7-14.3 4.9-21.6 6.8-15.6 4.1-31.5 7.3-46.8 12.3-19.9 6.5-39.7 15.7-57.1 27.1-26.5 17.4-48.9 42.2-50.8 75.1-1.2 21.5 8 43 20.7 60 8.9 11.9 18.9 22.4 30.6 31.5 8.3 6.4 22.8 1.5 27.4-7.2 5.7-10.4 1.8-20.3-7.1-27.2z"/>
</svg>
