<?xml version="1.0" encoding="utf-8"?>
<!-- Generator: Adobe Illustrator 25.2.1, SVG Export Plug-In . SVG Version: 6.00 Build 0)  -->
<svg version="1.1" id="Layer_1" xmlns="http://www.w3.org/2000/svg" xmlns:xlink="http://www.w3.org/1999/xlink" x="0px" y="0px"
	 viewBox="0 0 160 160" style="enable-background:new 0 0 160 160;" xml:space="preserve">
<g>
	<path d="M110.5,138.5h-61c-1.1,0-2-0.9-2-2c0-0.4,0.1-0.7,0.3-1l30.5-52.8c0.6-1,1.8-1.3,2.7-0.7c0.3,0.2,0.6,0.4,0.7,0.7
		l30.5,52.8c0.6,1,0.2,2.2-0.7,2.7C111.2,138.4,110.9,138.5,110.5,138.5z M53,134.5h54L80,87.7L53,134.5z"/>
	<path d="M142,109c-0.3,0-0.6-0.1-0.9-0.2l-124-59c-1-0.5-1.5-1.6-1-2.6c0.5-1,1.6-1.5,2.6-1c0,0,0.1,0,0.1,0l124,59
		c1,0.5,1.4,1.7,0.9,2.7C143.5,108.6,142.8,109,142,109z"/>
	<path d="M28,45.5c-6.6,0-12-5.4-12-12s5.4-12,12-12s12,5.4,12,12S34.6,45.5,28,45.5z M28,25.5c-4.4,0-8,3.6-8,8s3.6,8,8,8
		s8-3.6,8-8S32.4,25.5,28,25.5z"/>
	<path d="M122.2,89c-12.1,0-21.9-9.8-21.9-21.9c0-12.1,9.8-21.9,21.9-21.9S144,55.1,144,67.1c0,0,0,0,0,0
		C144,79.2,134.2,89,122.2,89z M122.2,49.3c-9.9,0-17.9,8-17.9,17.9s8,17.9,17.9,17.9c9.8,0,17.8-8,17.9-17.8
		C140,57.3,132,49.3,122.2,49.3L122.2,49.3z"/>
</g>
</svg>
