<svg xmlns="http://www.w3.org/2000/svg" viewBox="0 0 40 40">
  <path d="M25.5 21c3 0 5.5 2.5 5.5 5.5S28.5 32 25.5 32 20 29.5 20 26.5s2.5-5.5 5.5-5.5m0-1c-3.6 0-6.5 2.9-6.5 6.5s2.9 6.5 6.5 6.5 6.5-2.9 6.5-6.5-2.9-6.5-6.5-6.5zM21.4 20.7l-4.5-4.5-.7.7 4.5 4.4c.1-.2.4-.4.7-.6z"/>
  <path d="M19.1 29.6l-.6.6c-2.4 2.4-6.3 2.4-8.7 0s-2.4-6.3 0-8.7L21.5 9.8c2.4-2.4 6.3-2.4 8.7 0s2.4 6.3 0 8.7l-1.6 1.6c.3.2.6.3.9.5l1.4-1.4c2.8-2.8 2.8-7.3 0-10.1s-7.3-2.8-10.1 0L9.1 20.8c-2.8 2.8-2.8 7.3 0 10.1s7.3 2.8 10.1 0l.4-.4c-.2-.3-.4-.6-.5-.9z"/>
  <path d="M21 26h9v1h-9z"/>
</svg>
