<svg id="Layer_1" data-name="Layer 1" xmlns="http://www.w3.org/2000/svg" viewBox="0 0 460 420">
  <defs>
    <style>
      .cls-2{fill:#fff}
    </style>
  </defs>
  <path d="M197.13 30L11.2 352.05C-3.4 377.35 14.85 409 44.07 409h371.86c29.22 0 47.47-31.62 32.87-56.92L262.87 30c-14.61-25.3-51.13-25.3-65.74 0z" fill="#fbad00"/>
  <path class="cls-2" d="M120 184.18h43.13c33.31 0 53.51 15.1 53.51 39.86s-20.2 39.86-53.51 39.86h-8.19v40.4H120zm34.94 25.11v29.49h6.55c12.56 0 18-4.55 18-14.74 0-10.38-5.46-14.75-18-14.75zM226.1 244.79c0-35.5 27.3-62.43 63.89-62.43 22.2 0 40.58 9.83 49.5 26.93l-27.66 18.93c-6.37-11.65-13.84-16.92-24.39-16.92-15.47 0-24.21 11.46-24.21 33.67 0 22.38 8.74 33.12 26 33.12 4.55 0 8-.72 10.92-2.36 5.09-2.92 7.46-8.56 7.46-16v-17.86h33.49v44.23c-11.47 12.56-30.4 20-50.42 20-37.46.02-64.58-26-64.58-61.31z"/>
</svg>
