<svg xmlns="http://www.w3.org/2000/svg" viewBox="0 0 125 125">
  <path d="M30 91.2c-1.2.6-1.8 1.8-1.6 3.1.2 1.3 1.2 2.3 2.5 2.5 1.9.3 8.5.9 15-3.7 5.2 2.8 10.9 4.2 16.6 4.2 9 0 17.9-3.5 24.6-10.2 13.5-13.5 13.5-35.6 0-49.1-6.6-6.6-15.3-10.2-24.6-10.2s-18 3.6-24.6 10.2c-12.7 12.7-13.6 33-2.2 46.7-1.5 3.1-3.4 5.3-5.7 6.5zm10.3-50.9c5.9-5.9 13.8-9.2 22.2-9.2s16.3 3.3 22.2 9.2c12.2 12.2 12.2 32.2 0 44.4-10.1 10.1-25.8 12.1-38.1 4.9l-1-.6-.9.7c-4.1 3.2-8.8 4-12.2 3.8 2.7-1.7 5-4.5 6.7-8.4l.4-1-.7-.8C28 70.9 28.6 52 40.3 40.3zm13.8 28.2l6-6-6-6 2.4-2.4 6 6 6-6 2.4 2.4-6 6 6 6-2.4 2.4-6-6-6 6-2.4-2.4z"/>
</svg>
