<svg id="ad1339fe-23e0-46b6-a8e3-3a73e046a5dc" data-name="Layer 1" xmlns="http://www.w3.org/2000/svg" viewBox="0 0 208.28 208.28"><defs><style>.b4752e46-da06-40fb-867c-635add653412{fill:#febd35;}.bc754981-0ba4-4a35-a9cc-68636a73addc{fill:#c940ea;}.b8902c19-bf58-49c0-a680-55b6aeff4a37{fill:#ff9057;}.bbbb22bd-8106-432a-90b8-c0a948009b69{fill:#ff5f99;}</style></defs><path class="b4752e46-da06-40fb-867c-635add653412" d="M94.25,147.42,54.08,187.59A97.33,97.33,0,0,1,13.59,68.4l50.49,50.49c.33.39.68.76,1,1.13l23.13,23.13A22.37,22.37,0,0,0,94.25,147.42Z"/><path class="bc754981-0ba4-4a35-a9cc-68636a73addc" d="M60.79,94.39,20.61,54.21A97.32,97.32,0,0,1,139.72,13.53L65.22,88l.07.07-.16.16A21.91,21.91,0,0,0,60.79,94.39Z"/><path class="b8902c19-bf58-49c0-a680-55b6aeff4a37" d="M147.49,113.89l40.18,40.18A97.3,97.3,0,0,1,68.25,194.62l49.5-49.5a20.93,20.93,0,0,0,2.27-2L143.15,120A21.91,21.91,0,0,0,147.49,113.89Z"/><path class="bbbb22bd-8106-432a-90b8-c0a948009b69" d="M201.48,104.14a96.94,96.94,0,0,1-6.79,35.74L144.2,89.39c-.33-.39-.68-.76-1-1.13L120,65.13a22.45,22.45,0,0,0-6.27-4.41l40.18-40.19A97.36,97.36,0,0,1,201.48,104.14Z"/></svg>