<svg id="e236e0e9-b4eb-43c2-9a5a-69203f89f9f1" data-name="Layer 1" xmlns="http://www.w3.org/2000/svg" viewBox="0 0 250 250"><defs><style>.bac155ba-1c1a-445d-827e-be162a0ffa7e{fill:#0cd68a;}.b5f90290-f970-4d74-a6f9-1e630dc887a7{fill:#2238af;}.ffda332a-2d5a-4c38-a3a5-556e47de8b65{fill:#6102d2;}.f2770e32-2040-4bad-9d95-54b6a689e20c{fill:#fcdb00;}.b2745df0-f6b6-4d01-ad91-a63248b39b44{fill:#fe346e;}</style></defs><path class="bac155ba-1c1a-445d-827e-be162a0ffa7e" d="M115.11,168.28,74.94,208.45A97.33,97.33,0,0,1,34.45,89.26l50.49,50.49c.33.39.68.76,1,1.13L109.12,164A22.37,22.37,0,0,0,115.11,168.28Z"/><path class="b5f90290-f970-4d74-a6f9-1e630dc887a7" d="M125,94.42a7.42,7.42,0,0,1,5.27,2.18l1.33,1.33,21.8,21.8a6.71,6.71,0,0,1,.57.64,7.45,7.45,0,0,1-.57,9.9L130.27,153.4a7.42,7.42,0,0,1-5.27,2.18,7.42,7.42,0,0,1-5.27-2.18l-1.33-1.33-21.8-21.8a6.71,6.71,0,0,1-.57-.64,7.45,7.45,0,0,1,.57-9.9L119.73,96.6A7.42,7.42,0,0,1,125,94.42Z"/><path class="ffda332a-2d5a-4c38-a3a5-556e47de8b65" d="M81.65,115.25,41.47,75.07A97.32,97.32,0,0,1,160.58,34.39l-74.5,74.5.07.07-.16.16A21.91,21.91,0,0,0,81.65,115.25Z"/><path class="f2770e32-2040-4bad-9d95-54b6a689e20c" d="M168.35,134.75l40.18,40.18A97.3,97.3,0,0,1,89.11,215.48l49.5-49.5a20.93,20.93,0,0,0,2.27-2L164,140.88A21.91,21.91,0,0,0,168.35,134.75Z"/><path class="b2745df0-f6b6-4d01-ad91-a63248b39b44" d="M222.34,125a96.94,96.94,0,0,1-6.79,35.74l-50.49-50.49c-.33-.39-.68-.76-1.05-1.13L140.88,86a22.45,22.45,0,0,0-6.27-4.41l40.18-40.19A97.36,97.36,0,0,1,222.34,125Z"/></svg>