<?xml version="1.0" encoding="utf-8"?>
<!-- Generator: Adobe Illustrator 25.2.1, SVG Export Plug-In . SVG Version: 6.00 Build 0)  -->
<svg version="1.1" id="Layer_1" xmlns="http://www.w3.org/2000/svg" xmlns:xlink="http://www.w3.org/1999/xlink" x="0px" y="0px"
	 viewBox="0 0 250 250" style="enable-background:new 0 0 250 250;" xml:space="preserve">
<style type="text/css">
	.st0{fill:#6102D2;}
	.st1{fill:#FFFFFF;}
	.st2{fill:#FE346E;}
	.st3{fill:#FCDB00;}
	.st4{fill:none;stroke:#6102D2;stroke-width:1.6167;stroke-linecap:round;}
	.st5{fill:none;stroke:#FE346E;stroke-width:1.6167;stroke-linecap:round;}
	.st6{fill:none;stroke:#FCDB00;stroke-width:1.6167;stroke-linecap:round;}
	.st7{fill:none;stroke:#0CD68A;stroke-width:1.6167;stroke-linecap:round;}
	.st8{fill:none;stroke:#2238AF;stroke-width:1.6167;stroke-linecap:round;}
</style>
<g id="Group_16" transform="translate(-222 -254)">
	<g id="Group_13">
		<path id="Rectangle_7" class="st0" d="M240.6,257.5h84.1c8,0,14.6,6.5,14.6,14.6v84.1c0,8-6.5,14.6-14.6,14.6h-84.1
			c-8,0-14.6-6.5-14.6-14.6v-84.1C226,264.1,232.5,257.5,240.6,257.5z"/>
		<g id="Group_9" transform="translate(-520.185 -505.421)">
			<g id="Group_8" transform="translate(535.797 626.348)">
				<g id="Group_3" transform="translate(222.871 152.95)">
					<g id="Group_2" transform="translate(0 0)">
						<path id="Path_1" class="st1" d="M45.3,18.9c0.8,0,1.5,0,2.3,0.1c0.4,0,0.7,0.1,1.1,0.1c0.2,0,0.4,0,0.5,0.1
							c-0.5,0,0.2,0,0.3,0c1.4,0.2,2.8,0.6,4.2,1c0.7,0.2,1.3,0.4,2,0.7c0.2,0.1,0.3,0.1,0.5,0.2c0.3,0.1-0.3-0.1,0,0
							c0.1,0,0.1,0.1,0.2,0.1c0.3,0.2,0.7,0.3,1,0.5c1.3,0.6,2.5,1.3,3.7,2.1c0.3,0.2,0.6,0.4,0.8,0.6c0.1,0.1,0.3,0.2,0.4,0.3
							c0.1,0,0.1,0.1,0.2,0.1c-0.3-0.3,0,0,0,0c0.5,0.4,1.1,0.9,1.6,1.3c1,1,2,2,2.9,3.1c0.1,0.1,0.2,0.3,0.3,0.4
							c0,0.1,0.1,0.1,0.1,0.2c0.2,0.3-0.2-0.3,0,0s0.4,0.6,0.7,0.9c0.4,0.6,0.8,1.1,1.1,1.7c0.4,0.6,0.7,1.2,1,1.9
							c0.2,0.3,0.3,0.6,0.4,0.9c0.1,0.2,0.1,0.3,0.2,0.5c0,0.1,0.1,0.2,0.1,0.3c0,0.1,0.2,0.3,0,0c0.2,0.3,0.3,0.6,0.4,1
							c0.1,0.4,0.3,0.7,0.4,1.1c0.2,0.7,0.4,1.4,0.6,2c0.2,0.7,0.3,1.4,0.5,2.1c0.1,0.3,0.1,0.7,0.2,1s0-0.4,0,0l0,0.2
							c0,0.2,0,0.4,0.1,0.6c0.1,1.5,0.2,3,0.1,4.5c0,0.7-0.1,1.5-0.2,2.2c0,0.2,0.1-0.4,0,0c0,0.1,0,0.2,0,0.3
							c0,0.2-0.1,0.3-0.1,0.5c-0.1,0.4-0.1,0.7-0.2,1.1c-0.3,1.4-0.7,2.8-1.2,4.2c-0.1,0.3-0.2,0.6-0.4,1c0,0.1,0,0.1-0.1,0.2
							c0.2-0.3,0-0.1,0,0c-0.1,0.2-0.2,0.4-0.3,0.6c-0.3,0.6-0.6,1.3-0.9,1.9c-0.7,1.2-1.4,2.4-2.3,3.6l-0.2,0.2
							c-0.1,0.2,0.2-0.3,0,0c-0.1,0.1-0.2,0.3-0.3,0.4c-0.2,0.3-0.5,0.6-0.7,0.9c-0.5,0.5-1,1.1-1.5,1.5s-1,1-1.5,1.4
							c-0.2,0.2-0.5,0.4-0.7,0.6c-0.1,0.1-0.3,0.2-0.4,0.3c0.3-0.2,0.1-0.1,0,0c-0.1,0.1-0.2,0.1-0.2,0.2c-1.1,0.9-2.4,1.6-3.6,2.3
							c-0.6,0.3-1.3,0.7-1.9,1l-0.4,0.2c-0.2,0.1,0.4-0.1,0,0c-0.1,0-0.2,0.1-0.2,0.1c-0.3,0.1-0.7,0.3-1,0.4
							c-1.4,0.5-2.8,0.9-4.2,1.2c-0.3,0.1-0.7,0.1-1,0.2c-0.2,0-0.3,0.1-0.5,0.1c0,0-0.4,0-0.1,0c0.3,0-0.2,0-0.2,0
							c-0.7,0.1-1.5,0.1-2.2,0.2c-1.5,0.1-3.1,0-4.6-0.1c-0.2,0-0.4,0-0.5-0.1c-0.4,0,0.4,0.1,0,0c-0.1,0-0.1,0-0.2,0
							c-0.4-0.1-0.8-0.1-1.2-0.2c-0.8-0.1-1.5-0.3-2.2-0.5c-0.7-0.2-1.4-0.4-2.1-0.7c-0.3-0.1-0.7-0.2-1-0.4c-0.1,0-0.2-0.1-0.2-0.1
							c0,0-0.3-0.1-0.1,0s-0.1,0-0.1,0l-0.3-0.1c-1.4-0.6-2.7-1.3-3.9-2.1c-0.6-0.4-1.2-0.8-1.8-1.3c-0.1,0-0.1-0.1-0.2-0.1
							c0.3,0.2,0,0,0,0c-0.1-0.1-0.3-0.2-0.4-0.3c-0.3-0.2-0.6-0.5-0.8-0.7c-1.1-1-2.1-2-3-3.1c-0.2-0.3-0.4-0.5-0.7-0.8
							c-0.2-0.3,0.2,0.2,0,0L22.9,64c-0.1-0.2-0.3-0.3-0.4-0.5c-0.4-0.6-0.8-1.2-1.2-1.8c-0.4-0.6-0.7-1.2-1-1.8
							c-0.2-0.3-0.3-0.6-0.5-1c-0.1-0.2-0.1-0.3-0.2-0.5c0-0.1-0.1-0.2-0.1-0.3c0-0.1-0.2-0.4,0,0c-0.3-0.7-0.6-1.4-0.8-2.1
							c-0.3-0.8-0.5-1.6-0.7-2.4c-0.1-0.5-0.2-0.9-0.3-1.4c0-0.2-0.1-0.5-0.1-0.7c0-0.1,0-0.2,0-0.3s0-0.2,0-0.3c0-0.2,0-0.2,0-0.1
							c0,0.2,0-0.2,0-0.2c0-0.1,0-0.2,0-0.4c0-0.2,0-0.5-0.1-0.7c0-0.5-0.1-1-0.1-1.6c0-1,0-2.1,0.1-3.1c0-0.5,0.1-1,0.1-1.5
							c0.1-0.5,0,0.3,0-0.2c0-0.1,0-0.2,0-0.3c0-0.3,0.1-0.6,0.1-0.9c0.3-1.7,0.8-3.3,1.3-4.9c0.1-0.3,0.3-0.7,0.4-1
							c0-0.1,0.1-0.3,0,0c0-0.1,0.1-0.2,0.1-0.2c0.1-0.2,0.2-0.4,0.2-0.5c0.3-0.7,0.6-1.3,1-2c0.4-0.6,0.7-1.3,1.2-1.9
							c0.2-0.3,0.4-0.6,0.6-0.9c0.1-0.1,0.2-0.3,0.3-0.4l0.1-0.2c0.1-0.1,0.3-0.5,0.1-0.1c0.4-0.6,0.9-1.1,1.4-1.7
							c0.5-0.5,1-1.1,1.5-1.5c0.5-0.5,1.1-1,1.7-1.5c0.1-0.1,0.3-0.2,0.4-0.3l0.2-0.2c0.2-0.1-0.3,0.2,0,0c0.3-0.2,0.6-0.5,0.9-0.7
							c1.2-0.8,2.5-1.6,3.8-2.3c0.3-0.1,0.6-0.3,0.9-0.4c0.2-0.1,0.3-0.1,0.5-0.2c0.1,0,0.4-0.2,0,0c0.1,0,0.2-0.1,0.3-0.1
							c0.7-0.3,1.4-0.5,2.1-0.8c1.4-0.5,2.9-0.8,4.4-1c0.1,0,0.2,0,0.3,0c0,0,0.4-0.1,0.1,0c-0.3,0,0.1,0,0.1,0c0.1,0,0.2,0,0.3,0
							c0.4,0,0.7-0.1,1.1-0.1C43.8,18.9,44.6,18.9,45.3,18.9c0.8,0,1.5-0.7,1.5-1.5c0-0.9-0.7-1.5-1.5-1.5c-6.4,0-12.7,2-17.9,5.7
							c-5.2,3.7-9.1,8.9-11.3,14.8c-2.7,7.3-2.5,15.4,0.5,22.6c2.5,5.9,6.6,10.9,12,14.3c10.9,7,24.9,6.5,35.3-1.2
							c4.9-3.7,8.7-8.7,10.8-14.4c5.9-16.2-2.4-34.1-18.6-39.9c-1.9-0.7-3.9-1.2-5.9-1.5c-1.6-0.2-3.2-0.4-4.8-0.4
							c-0.9,0-1.5,0.7-1.5,1.5C43.8,18.2,44.5,18.9,45.3,18.9L45.3,18.9L45.3,18.9z"/>
					</g>
				</g>
				<g id="Group_5" transform="translate(221.388 151.51)">
					<g id="Group_4" transform="translate(0 0)">
						<path id="Path_2" class="st1" d="M24.5,17.5l5.5,5.5l0.8,0.8c0.1-0.8,0.2-1.6,0.3-2.4c-4.7,2.7-8.6,6.7-11.4,11.4
							c0.8-0.1,1.6-0.2,2.4-0.3L16.7,27l-0.8-0.8v2.2l3.6-3.6l5.9-5.9l1.3-1.3c0.6-0.6,0.6-1.6,0.1-2.2c-0.6-0.6-1.6-0.6-2.2-0.1
							c0,0,0,0-0.1,0.1L20.9,19L15,24.9l-1.3,1.3c-0.6,0.6-0.6,1.6,0,2.2l5.5,5.5l0.8,0.8c0.6,0.6,1.6,0.6,2.2,0
							c0.1-0.1,0.2-0.2,0.2-0.3c0.6-1.1,1.3-2.1,2.1-3.1c-0.2,0.3,0-0.1,0.1-0.1c0.1-0.1,0.2-0.3,0.3-0.4c0.2-0.2,0.4-0.5,0.6-0.7
							c0.4-0.5,0.8-0.9,1.3-1.4c0.4-0.4,0.9-0.9,1.4-1.3c0.2-0.2,0.5-0.4,0.8-0.6l0.4-0.3c0,0,0.4-0.3,0.2-0.1
							c1-0.8,2.1-1.5,3.2-2.1c0.7-0.4,1-1.4,0.5-2.1c-0.1-0.1-0.1-0.2-0.2-0.3l-5.5-5.5l-0.8-0.8c-0.6-0.6-1.6-0.6-2.2,0
							C23.9,16,23.9,16.9,24.5,17.5L24.5,17.5z"/>
					</g>
				</g>
				<g id="Group_7" transform="translate(222.715 144.073)">
					<g id="Group_6" transform="translate(0 0)">
						<path id="Path_3" class="st1" d="M19.6,28c0.7,0.5,0,0-0.2-0.2c-0.4-0.4-0.7-0.7-1.1-1.1c0,0-0.1-0.1-0.1-0.1
							c0.4,0.4,0.2,0.2,0.1,0.1c-0.1-0.1-0.2-0.3-0.3-0.4c-0.2-0.3-0.3-0.6-0.5-0.9c-0.1-0.1-0.2-0.5,0,0.1c0-0.1-0.1-0.2-0.1-0.2
							c-0.1-0.2-0.1-0.3-0.2-0.5c0-0.2-0.1-0.4-0.1-0.5c0,0,0,0.5,0,0.2c0,0,0-0.1,0-0.1c0-0.1,0-0.2,0-0.3c0-0.2,0-0.4,0-0.5
							c0-0.2-0.1,0.5,0,0.2l0-0.1c0-0.1,0.1-0.2,0.1-0.3c0-0.1,0.1-0.2,0.1-0.3c0,0,0-0.1,0.1-0.1c0.1-0.2-0.1,0.2-0.1,0.2
							c0.1-0.2,0.2-0.4,0.3-0.6c0.1-0.1,0.1-0.2,0.2-0.3c0.2-0.3-0.2,0.3,0,0c0.2-0.2,0.4-0.4,0.6-0.6c0.2-0.2,0.4-0.4,0.6-0.6
							C18.9,21,18.9,21,19,20.9l0.2-0.2c0.1-0.1,0.3-0.2,0.4-0.3c0.7-0.4,1.4-0.8,2.1-1.1c0.2-0.1,0.4-0.2,0.6-0.3c-0.3,0.1,0,0,0,0
							l0.3-0.1c0.3-0.1,0.5-0.2,0.8-0.3c1.2-0.4,2.4-0.6,3.5-0.9c1.4-0.3,2.7-0.9,3.8-1.8c1.2-1,1.8-2.5,1.7-4
							c0-0.9-0.7-1.5-1.5-1.5c-0.9,0-1.5,0.7-1.5,1.5c0,0.2,0,0.3,0,0.5c0,0.4,0.1-0.3,0,0.1c0,0.1-0.1,0.3-0.1,0.4
							c0,0,0,0.1-0.1,0.1c-0.1,0.3,0.2-0.4,0-0.1c-0.1,0.1-0.1,0.2-0.2,0.3c0,0-0.1,0.1-0.1,0.2c0-0.2,0.2-0.3,0.1-0.1
							c-0.1,0.1-0.2,0.2-0.3,0.3c0,0-0.1,0.1-0.1,0.1c-0.2,0.2,0.3-0.2,0,0c-0.2,0.1-0.4,0.3-0.6,0.4l-0.3,0.2
							c-0.1,0-0.2,0.1-0.2,0.1c0.1-0.1,0.3-0.1,0.1,0c-0.5,0.2-1.1,0.4-1.7,0.5c-1.2,0.3-2.4,0.6-3.6,1c-1.6,0.5-3,1.2-4.4,2.1
							c-2.2,1.2-3.6,3.4-3.9,5.8c0,1.7,0.5,3.3,1.6,4.6c0.7,0.9,1.5,1.7,2.4,2.4c0.7,0.4,1.7,0.2,2.1-0.6
							C20.6,29.4,20.3,28.5,19.6,28L19.6,28z"/>
					</g>
				</g>
			</g>
		</g>
	</g>
	<g id="Group_11" transform="translate(25 -23)">
		<path id="Rectangle_10" class="st2" d="M344.9,337.1H429c8,0,14.6,6.5,14.6,14.6v84.1c0,8-6.5,14.6-14.6,14.6h-84.1
			c-8,0-14.6-6.5-14.6-14.6v-84.1C330.3,343.6,336.8,337.1,344.9,337.1z"/>
		<g id="Group_10" transform="translate(284.996 319.998)">
			<path id="Path_4" class="st1" d="M115.6,76.2c7.6,0,13.7,6.1,13.7,13.7c0,7.6-6.1,13.7-13.7,13.7s-13.7-6.1-13.7-13.7
				c0,0,0,0,0,0C101.9,82.3,108,76.2,115.6,76.2 M115.6,73.7c-8.9,0-16.2,7.2-16.2,16.2c0,8.9,7.2,16.2,16.2,16.2
				s16.2-7.2,16.2-16.2C131.8,81,124.5,73.7,115.6,73.7z"/>
			<path id="Path_5" class="st1" d="M105.3,75.4L94.1,64.1l-1.7,1.7L103.4,77C104,76.4,104.7,75.9,105.3,75.4z"/>
			<path id="Path_6" class="st1" d="M99.6,97.6l-1.5,1.5c-5.9,6-15.6,6-21.5,0.1c-6-5.9-6-15.6-0.1-21.5c0,0,0,0,0.1-0.1l0,0
				l29.3-29.3c6-5.9,15.6-5.9,21.5,0.1c5.9,5.9,5.9,15.5,0,21.5l-4,4c0.8,0.4,1.5,0.8,2.2,1.3l3.5-3.5c6.9-6.9,6.9-18.1,0-25.1
				c-6.9-6.9-18.1-6.9-25.1,0l0,0L74.8,75.8c-6.9,6.9-6.9,18.1,0,25.1c6.9,6.9,18.1,6.9,25.1,0l0,0l1-1
				C100.4,99.1,100,98.4,99.6,97.6z"/>
			<rect id="Rectangle_11" x="105.2" y="88.3" class="st1" width="21" height="3.2"/>
		</g>
	</g>
	<g id="Group_14">
		<path id="Rectangle_10-2" class="st3" d="M240.6,386.9h84.1c8,0,14.6,6.5,14.6,14.6v84.1c0,8-6.5,14.6-14.6,14.6h-84.1
			c-8,0-14.6-6.5-14.6-14.6v-84.1C226,393.4,232.5,386.9,240.6,386.9z"/>
		<g id="Group_12" transform="translate(214.544 323.516)">
			<path id="Path_7" class="st1" d="M81.5,86c-0.6,0-1.1,0.4-1.4,0.9l-2.9,4.8c-0.5,0.8-0.2,1.9,0.6,2.5c0.8,0.5,1.9,0.2,2.5-0.6
				l2.9-4.8c0.5-0.8,0.3-1.9-0.5-2.5C82.3,86.1,81.9,86,81.5,86L81.5,86z M94.8,93.6c-0.3,0-0.5,0.1-0.8,0.3l-8.9,5.4
				c-0.9,0.5-1.2,1.5-0.7,2.4c0.5,0.9,1.5,1.2,2.4,0.7c0,0,0.1-0.1,0.1-0.1l8.9-5.4c0.9-0.5,1.2-1.6,0.7-2.4
				C96.2,93.9,95.5,93.5,94.8,93.6L94.8,93.6z M64.9,99.8c-1.1,0-2.1,0.2-3.1,0.6c0,0-0.1,0-0.1,0.1l-0.1,0c-0.9,0.3-1.7,0.6-2.5,1
				c-0.9,0.4-1.2,1.5-0.8,2.4c0.4,0.9,1.5,1.2,2.4,0.8l0,0c0.7-0.3,1.4-0.6,2.1-0.9c0.1,0,0.2-0.1,0.2-0.1c1-0.4,2.1-0.5,3.2-0.3
				c1.6,0.3,3.5,1.2,4.5,5.7c0.1,0.6,0.5,1,1.1,1.2c1,0.5,1.9,1.1,2.6,2c0.5,0.6,0.8,1.3,0.9,2.1c0,1.2-0.4,2.4-1.2,3.3
				c-0.6,0.8-0.4,1.9,0.4,2.5c0,0,0,0,0,0c0,0,0.1,0.1,0.1,0.1c0.8,0.6,1.5,1.3,2.1,2.1c0.8,1.3,1.2,2.6-1,5.2
				c-0.5,0.5-0.6,1.3-0.3,1.9c0.5,1.2,0.8,2.5,0.8,3.9c0.2,2.5-1.3,4.8-3.7,5.7c-0.1,0.1-0.2,0.1-0.3,0.2c0,0-12.5,9.3-24,9.7
				c-0.1,0-0.2,0-0.3,0.1l-3.5,0.8l-10.7-19.2c1.5-1.1,2.4-2.7,2.6-4.5c0,0,0-0.1,0-0.1c0.1-0.2,3.5-13.5,7.4-20.3v0
				c0.3-0.5,0.8-0.9,1.3-1.1c1.9-0.9,4-1.1,6-0.5c0.4,0.2,0.7,0.4,1.1,0.6c0,0,0,0,0,0c0,0-0.1,0.3-0.8,0.9
				c-0.8,0.5-1.1,1.6-0.5,2.5c0.5,0.8,1.6,1.1,2.5,0.5c0.1-0.1,0.2-0.1,0.2-0.2c1.1-0.7,1.9-1.8,2.2-3.1c0.2-1.1-0.1-2.2-0.9-3
				c-0.7-0.8-1.6-1.4-2.7-1.7c-0.1,0-0.1,0-0.2-0.1c-2.9-0.8-6-0.5-8.7,0.8c-1.1,0.6-2,1.4-2.7,2.5l0,0c-4.5,7.8-7.8,21.3-7.8,21.3
				c0,0,0,0.1,0,0.1c-0.4,2.1-1,2.4-1.1,2.5c-0.1,0-0.1,0-0.1,0.1c-0.9-0.3-1.9,0.1-2.3,1.1c-0.2,0.5-0.1,1,0.1,1.5l12.4,22.3
				c0.4,0.7,1.2,1.1,2,0.9l4.7-1.1l0.1,0c13.1-0.7,25.7-10.4,25.7-10.4l0,0c3.3-1.6,5.5-5,5.4-8.7c0-1.5-0.3-3-0.8-4.4
				c1.9-2.4,2.2-5.7,0.8-8.4c-0.5-0.9-1.2-1.7-2-2.3c0.7-1.2,1.1-2.6,1.1-4c-0.1-1.5-0.7-3-1.7-4.2c-0.9-1.1-2-2-3.3-2.6
				c-1.4-4.8-4.4-7-7.1-7.5C66.2,99.9,65.5,99.8,64.9,99.8z M105.8,103.3c-0.1,0-0.2,0-0.3,0.1l-21.7,5.8c-1,0.2-1.6,1.1-1.4,2.1
				s1.1,1.6,2.1,1.4c0.1,0,0.1,0,0.2-0.1l21.7-5.8c1-0.2,1.6-1.1,1.5-2.1C107.7,103.8,106.8,103.1,105.8,103.3L105.8,103.3z
				 M91.1,116.8c-1,0-1.8,0.9-1.7,1.8c0,1,0.9,1.8,1.8,1.7l10.6,0.2c1,0,1.8-0.8,1.8-1.7c0-1-0.8-1.8-1.7-1.8l0,0l-10.6-0.2
				C91.2,116.8,91.1,116.8,91.1,116.8z M89.3,127.5c-1,0.1-1.7,0.9-1.6,1.9c0,0.6,0.4,1.2,1,1.5l5,2.6c0.9,0.5,1.9,0.2,2.4-0.7
				c0.5-0.9,0.2-1.9-0.7-2.4c0,0-0.1,0-0.1-0.1l-5-2.6C90,127.5,89.6,127.4,89.3,127.5L89.3,127.5z"/>
		</g>
	</g>
	<g id="Group_15">
		<line id="Line_1" class="st4" x1="355.3" y1="440.2" x2="412.7" y2="440.2"/>
		<line id="Line_2" class="st5" x1="355.3" y1="453.2" x2="394.9" y2="453.2"/>
		<line id="Line_3" class="st6" x1="355.3" y1="466.1" x2="382" y2="466.1"/>
		<line id="Line_4" class="st7" x1="355.3" y1="479" x2="369.1" y2="479"/>
		<line id="Line_5" class="st8" x1="355.3" y1="492" x2="362.6" y2="492"/>
	</g>
</g>
</svg>
