<svg xmlns="http://www.w3.org/2000/svg" viewBox="0 0 625 625">
  <path d="M385.8 434.5h-145c1.8.7 3.5 1.5 5.3 2.2-17.2-16.6-34.4-33.1-51.6-49.6l-81.6-78.3c-6.3-6.1-12.7-12.2-19-18.2.7 1.8 1.5 3.5 2.2 5.3v-67.4c0-8.8-.3-17.7 0-26.5.3-8 6.2-12.1 13.6-12.2 35.4-.1 70.7 0 106.1 0h295.8c2.9 0 6.3-.4 9.1.5 10.3 3.1 8.5 14.4 8.5 22.7v85.3c.7-1.8 1.5-3.5 2.2-5.3-17 16.2-34 32.3-50.9 48.5l-81.3 77.4c-6.3 6-12.5 11.9-18.8 17.9-7 6.7 3.6 17.3 10.6 10.6 30.3-28.9 60.6-57.7 91-86.6 16.9-16.1 33.9-32.3 50.8-48.4 3-2.9 6.5-5.6 9.2-8.7 2.4-2.9 2.2-5.6 2.2-9v-13.5-75.7c0-3.7 0-7.4-1-11-3-10.5-12.3-18.1-23.1-19.3-2.8-.3-5.6-.2-8.3-.2H113c-3.7 0-7.5-.1-11.1.7-10.3 2.3-18.6 11-20.3 21.4-.5 3.1-.5 6.2-.5 9.3v76c0 5.5-1.7 14.7 2.4 19.1 3.3 3.6 7 6.8 10.5 10.1l52.1 50 60.7 58.3c6.9 6.6 13.8 13.2 20.7 19.9 2.9 2.8 5.9 6.8 9.5 8.8 4.5 2.6 13 1 17.9 1h130.9c9.6-.1 9.6-15.1 0-15.1z"/>
  <path d="M88.6 234.4h393c18.1 0 36.3.7 54.4 0h.7c9.7 0 9.7-15 0-15h-393c-18.1 0-36.3-.7-54.4 0h-.7c-9.6 0-9.6 15 0 15zM247 442.9c11.5-35.9 6.8-76.1-13.4-108-17.9-28.3-46.7-49.1-79.3-56.6-22.3-5.2-45.7-4.3-67.6 2.4-9.2 2.8-5.3 17.3 4 14.5 32.2-9.9 67.2-5.5 95.6 12.7 25 16 42.8 41.7 49.3 70.7 4.5 20 3.2 40.9-3.1 60.4-3 9.1 11.5 13.1 14.5 3.9zM396 437.1c-8.3-31.1-3.5-64.4 13.9-91.6 15.4-24 39.8-41.5 67.4-48.6 18.9-4.8 38.6-4.5 57.4.4 9.3 2.4 13.3-12 4-14.5-35-9.2-73.1-3.6-103.5 16.3-27 17.7-47 45.5-54.7 76.9-5.2 21.3-4.7 43.7.9 64.9 2.7 9.5 17.2 5.5 14.6-3.8z"/>
</svg>
