<svg xmlns="http://www.w3.org/2000/svg" viewBox="0 0 125 125">
  <path d="M77 24.538c-.7 0-1.3.4-1.6 1l-3.2 5.3c-.6.9-.3 2.2.7 2.8.9.6 2.2.3 2.8-.7l3.2-5.3c.6-.9.3-2.2-.6-2.8-.4-.3-.8-.4-1.3-.3zm14.9 8.5c-.3 0-.6.1-.9.3l-10 6.1c-1 .5-1.4 1.7-.9 2.7.5 1 1.7 1.4 2.7.9.1-.1.2-.1.3-.2l10-6.1c1-.6 1.3-1.8.7-2.7-.4-.7-1.1-1.1-1.9-1zm-33.5 7c-1.9 0-3.2.5-3.5.7 0 0-.1 0-.2.1h-.1c-.9.3-1.8.7-2.8 1.2-1 .5-1.4 1.7-.9 2.7s1.7 1.4 2.7.9c1-.5 1.9-.9 2.3-1 .1 0 .2-.1.2-.1s1.7-.7 3.5-.3 3.9 1.3 5.1 6.3c.2.6.6 1.1 1.2 1.4 0 0 1.8.8 3 2.2.6.7.9 1.5 1 2.4 0 .9-.2 2.1-1.4 3.7-.6.9-.4 2.2.5 2.8l.1.1s1.5.9 2.3 2.4c.8 1.4 1.4 2.9-1.2 5.9-.5.6-.6 1.4-.3 2.2 0 0 .9 2 .9 4.3s-.5 4.7-4.1 6.3c-.1.1-.3.1-.4.2 0 0-14 10.4-26.9 10.9-.1 0-.3 0-.4.1l-3.9.9-12-21.5c1.3-.9 2.4-2.4 2.9-5v-.1c.1-.2 3.9-15.1 8.3-22.8 0 0 .3-.6 1.5-1.3 1.2-.7 3.2-1.2 6.8-.5.1.1.9.4 1.2.7 0 0-.1.4-.9 1-.9.6-1.2 1.8-.6 2.8.6.9 1.8 1.2 2.8.6.1-.1.2-.1.3-.2 1.3-1 2.2-2.2 2.5-3.5s-.3-2.6-1-3.3c-1.3-1.5-3-1.9-3-1.9-.1 0-.1 0-.2-.1-4.4-1-7.7-.2-9.8.9-2 1.1-3 2.7-3 2.8-5 8.8-8.8 23.9-8.8 23.9v.1c-.4 2.3-1.1 2.7-1.2 2.8-.1 0-.1.1-.1.1-1-.4-2.2.2-2.6 1.2-.2.5-.1 1.2.1 1.7l13.9 25c.4.8 1.3 1.2 2.2 1l5.2-1.3h.1c14.7-.8 28.8-11.7 28.8-11.7 4.6-2.3 6.1-6.5 6.1-9.7 0-2.3-.5-4-.9-5 2.5-3.6 2.2-7.2.9-9.4-.7-1.2-1.5-2-2.2-2.6.8-1.6 1.3-3.1 1.2-4.5-.1-1.9-.9-3.5-1.9-4.7-1.4-1.7-2.8-2.5-3.7-2.9-1.6-5.3-4.9-7.9-7.9-8.4-.3-.5-1-.6-1.7-.5zm45.9 3.8c-.1 0-.2 0-.3.1l-24.3 6.5c-1.1.2-1.8 1.2-1.7 2.3.2 1.1 1.2 1.8 2.3 1.7.1 0 .3-.1.4-.1l24.3-6.5c1.1-.2 1.8-1.3 1.5-2.4-.2-1-1.2-1.7-2.2-1.6zm-16.6 15.2c-1.1 0-2 1-1.9 2.1s1 2 2.1 1.9l11.8.2c1.1 0 2-.8 2-2s-.8-2-2-2l-11.8-.2h-.2zm-2 11.9c-1.1.1-1.9 1.1-1.8 2.2.1.7.5 1.3 1.1 1.6l5.7 3c1 .6 2.2.2 2.7-.7.6-1 .2-2.2-.7-2.7 0 0-.1 0-.1-.1l-5.7-3c-.4-.2-.8-.3-1.2-.3z"/>
</svg>
