<svg id="Layer_1" data-name="Layer 1" xmlns="http://www.w3.org/2000/svg" viewBox="0 0 1920 1080"><defs><style>.cls-1{fill:#ff7d13;}.cls-2{fill:#fbad00;}.cls-3{fill:#006ed2;}</style></defs><path class="cls-1" d="M152.85,1482.73,836.69,768.36c53.72-56.12,26.54-149.35-48.92-167.82l-960.59-235c-75.46-18.46-142.61,51.69-120.87,126.27l276.75,949.41C4.8,1515.78,99.13,1538.86,152.85,1482.73Z"/><path class="cls-2" d="M1703-8.11l322,185.94c25.3,14.6,56.92-3.66,56.92-32.87V-226.9c0-29.22-31.62-47.48-56.92-32.87L1703-73.84C1677.73-59.23,1677.73-22.71,1703-8.11Z"/><path class="cls-3" d="M1574.73,541.68l239,950.07c18.78,74.64,111.32,101,166.57,47.38l703.26-682.06c55.24-53.59,31.77-146.88-42.26-167.94L1699,421.12C1625,400.07,1556,467,1574.73,541.68Z"/></svg>