<svg id="Layer_1" data-name="Layer 1" xmlns="http://www.w3.org/2000/svg" viewBox="0 0 460 420"><defs><style>.cls-1{fill:#006ed2;}.cls-2{fill:#fff;}</style></defs><circle class="cls-1" cx="230" cy="210" r="200"/><path class="cls-2" d="M81.12,149.94h43.32c35.68,0,55,12.19,55,34.58,0,16-12.2,26.94-32.58,29.67v.36c20.93,1.82,29.85,10.37,29.85,29.12v4.19c0,9.64,1.82,16.74,5.64,22.2H146.1c-3.46-4-5.09-10.19-5.09-19.11V246c0-14.38-4.74-19.84-17.11-19.84h-7.83v43.86H81.12Zm34.95,25.11v27.67h7.83c12.74,0,18.38-4.19,18.38-13.83s-5.64-13.84-18.38-13.84Z"/><path class="cls-2" d="M230,191.44c-8.37,9.46-16.2,14.92-29.67,20.74l-9.64-27.66c21.66-8.74,35.12-18.38,49.5-34.58h23.12V270.06H230Z"/><path class="cls-2" d="M280.59,236.94c0-11.11,6.92-21.12,19.84-26.21-12.38-7.1-18-15.84-18-27.3,0-19.66,20.57-35.31,47-35.31s47.69,15.65,47.69,34.76c0,11.1-7.1,19.47-18.93,24.39,14,7.1,20.75,15.65,20.75,27.12,0,22.2-21.48,37.49-49,37.49S280.59,256.59,280.59,236.94Zm42.05-15.84c-4.74,3.82-7.29,8.37-7.29,13.29,0,8,5.65,12.92,14.93,12.92,8.55,0,13.83-4.19,13.83-9.65,0-5.27-2.91-8.37-14.92-13.65ZM331,194.71l4.91,2.19c4.19-3.46,6.37-7.47,6.37-12.56,0-7.47-5.28-11.65-12.74-11.65s-12.37,4-12.37,9.1C317.18,186.7,319.54,189.61,331,194.71Z"/></svg>