<svg id="Layer_1" data-name="Layer 1" xmlns="http://www.w3.org/2000/svg" viewBox="0 0 460 420"><defs><style>.cls-1{fill:#ff7d13;}.cls-2{fill:#fff;}</style></defs><circle class="cls-1" cx="230" cy="210" r="199.11"/><path class="cls-2" d="M113,185.22c-8.38,9.46-16.2,14.93-29.67,20.75L73.67,178.3c21.66-8.73,35.13-18.38,49.51-34.58h23.11V263.85H113Z"/><path class="cls-2" d="M166.31,240.37c33.67-17.11,54.06-37.86,54.06-57.88,0-7.64-4.92-13.47-12.38-13.47-8.55,0-14.93,6.55-18.38,18.75L161.94,174.3c7.1-20.2,24.94-32.4,47.5-32.4,26.21,0,46.42,19.11,46.42,41.86,0,22-15.84,40.23-44.59,54.42h44.22v25.67H166.31Z"/><path class="cls-2" d="M307.36,143.72h34.22l43.5,120.13H348.49l-6.37-20.57H305.18L299,263.85H263.86Zm4.73,75h23.3l-11.65-37.49Z"/></svg>