<svg id="Layer_1" data-name="Layer 1" xmlns="http://www.w3.org/2000/svg" viewBox="0 0 460 420">
  <defs>
    <style>
      .cls-2{fill:#fff}
    </style>
  </defs>
  <circle cx="230" cy="210" r="200" fill="#ff7d13"/>
  <path class="cls-2" d="M176.42 185.22c-8.37 9.46-16.2 14.93-29.67 20.75l-9.64-27.67c21.65-8.73 35.12-18.38 49.5-34.58h23.12v120.13h-33.31zM229.74 240.37c33.67-17.11 54.06-37.86 54.06-57.88 0-7.64-4.92-13.47-12.38-13.47-8.55 0-14.92 6.55-18.38 18.75l-27.67-13.47c7.1-20.2 24.94-32.4 47.51-32.4 26.21 0 46.41 19.11 46.41 41.86 0 22-15.84 40.23-44.59 54.42h44.22v25.67h-89.18z"/>
</svg>
