<svg id="Layer_1" data-name="Layer 1" xmlns="http://www.w3.org/2000/svg" viewBox="0 0 460 420"><defs><style>.cls-1{fill:#fbad00;}.cls-2{fill:#fff;}</style></defs><path class="cls-1" d="M197.13,30,11.2,352.05C-3.4,377.35,14.85,409,44.07,409H415.93c29.22,0,47.47-31.62,32.87-56.92L262.87,30C248.26,4.7,211.74,4.7,197.13,30Z"/><path class="cls-2" d="M120,184.18h43.13c33.31,0,53.51,15.1,53.51,39.86s-20.2,39.86-53.51,39.86h-8.19v40.4H120Zm34.94,25.11v29.49h6.55c12.56,0,18-4.55,18-14.74,0-10.38-5.46-14.75-18-14.75Z"/><path class="cls-2" d="M226.1,244.79c0-35.5,27.3-62.43,63.89-62.43,22.2,0,40.58,9.83,49.5,26.93l-27.66,18.93c-6.37-11.65-13.84-16.92-24.39-16.92-15.47,0-24.21,11.46-24.21,33.67,0,22.38,8.74,33.12,26,33.12,4.55,0,8-.72,10.92-2.36,5.09-2.92,7.46-8.56,7.46-16V241.87h33.49V286.1c-11.47,12.56-30.4,20-50.42,20C253.22,306.12,226.1,280.1,226.1,244.79Z"/></svg>