<svg id="Layer_1" data-name="Layer 1" xmlns="http://www.w3.org/2000/svg" viewBox="0 0 460 420">
  <defs>
    <style>
      .cls-2{fill:#fff}
    </style>
  </defs>
  <circle cx="230" cy="210" r="200" fill="#fb4f93"/>
  <path class="cls-2" d="M173.33 190.53c-8.37 9.46-16.2 14.92-29.67 20.74L134 183.61c21.65-8.74 35.12-18.38 49.5-34.58h23.12v120.12h-33.29zM224.29 243.31l28.57-12c5.1 9.11 11.1 13.29 18.75 13.29a13.51 13.51 0 0013.83-14c0-8.92-6.92-14-16.38-14a32.74 32.74 0 00-15.11 4l-22.38-11.65 4.36-59.95h79.72v25.66h-52.23l-1.46 18a55 55 0 0115.65-2.18c23.66 0 43.32 17.1 43.32 38.94 0 24.39-20.93 41.5-48.59 41.5-23.34.08-41.14-10.69-48.05-27.61z"/>
</svg>
