<svg id="Layer_1" data-name="Layer 1" xmlns="http://www.w3.org/2000/svg" viewBox="0 0 460 420"><defs><style>.cls-1{fill:#fb4f93;}.cls-2{fill:#fff;}</style></defs><circle class="cls-1" cx="230" cy="210" r="200"/><path class="cls-2" d="M173.33,190.53c-8.37,9.46-16.2,14.92-29.67,20.74L134,183.61c21.65-8.74,35.12-18.38,49.5-34.58h23.12V269.15H173.33Z"/><path class="cls-2" d="M224.29,243.31l28.57-12c5.1,9.11,11.1,13.29,18.75,13.29a13.51,13.51,0,0,0,13.83-14c0-8.92-6.92-14-16.38-14a32.74,32.74,0,0,0-15.11,4l-22.38-11.65L235.93,149h79.72v25.66H263.42l-1.46,18a55,55,0,0,1,15.65-2.18c23.66,0,43.32,17.1,43.32,38.94,0,24.39-20.93,41.5-48.59,41.5C249,271,231.2,260.23,224.29,243.31Z"/></svg>