<svg id="Layer_1" data-name="Layer 1" xmlns="http://www.w3.org/2000/svg" viewBox="0 0 460 420"><defs><style>.cls-1{fill:#dc0a0a;}.cls-2{fill:#fff;}</style></defs><circle class="cls-1" cx="230" cy="210" r="200"/><path class="cls-2" d="M175.22,191.44c-8.37,9.46-16.2,14.92-29.67,20.74l-9.64-27.66c21.65-8.74,35.12-18.38,49.5-34.58h23.12V270.06H175.22Z"/><path class="cls-2" d="M225.81,236.94c0-11.11,6.92-21.12,19.84-26.21-12.38-7.1-18-15.84-18-27.3,0-19.66,20.57-35.31,47-35.31s47.68,15.65,47.68,34.76c0,11.1-7.09,19.47-18.92,24.39,14,7.1,20.74,15.65,20.74,27.12,0,22.2-21.47,37.49-49,37.49S225.81,256.59,225.81,236.94Zm42-15.84c-4.73,3.82-7.28,8.37-7.28,13.29,0,8,5.65,12.92,14.93,12.92,8.55,0,13.83-4.19,13.83-9.65,0-5.27-2.91-8.37-14.92-13.65Zm8.38-26.39,4.91,2.19c4.19-3.46,6.37-7.47,6.37-12.56,0-7.47-5.28-11.65-12.74-11.65s-12.38,4-12.38,9.1C262.39,186.7,264.76,189.61,276.23,194.71Z"/></svg>