<svg id="Layer_1" data-name="Layer 1" xmlns="http://www.w3.org/2000/svg" viewBox="0 0 1585 479"><defs><style>.cls-1{fill:#fb4f93;}.cls-2,.cls-3{fill:#2e353a;}.cls-3{opacity:0.7;}</style></defs><path class="cls-1" d="M378,288.12,184.47,85.24a28.61,28.61,0,0,0-48.16,11.69l-78.94,269a28.61,28.61,0,0,0,34.2,35.86L364,335.67A28.61,28.61,0,0,0,378,288.12Z"/><path class="cls-2" d="M82.56,175.27h19.82c20.8,0,28.39-.66,37.64-3.3v24.11c10.24-15.19,28.73-24.11,50.2-24.11,20.8,0,36.65,8.59,44.25,26.75C245,181.88,264.19,172,288.29,172c30.06,0,49.87,16.51,49.87,53.17v95.43H280.7V238.68c0-13.87-5.61-18.17-14.53-18.17-16.18,0-27.08,13.21-27.08,35.34v64.72H181.63V238.68c0-13.87-5.61-18.17-14.53-18.17-16.18,0-27.08,13.21-27.08,35.34v64.72H82.56Z"/><path class="cls-2" d="M363.58,247.92c0-40.95,39-75.95,84.54-75.95s84.54,35,84.54,75.95-39,76-84.54,76S363.58,288.87,363.58,247.92Zm110,0c0-16.84-11.23-28.73-25.43-28.73s-25.43,11.89-25.43,28.73,11.23,28.73,25.43,28.73S473.55,264.76,473.55,247.92Z"/><path class="cls-2" d="M535.63,175.27h58.45l30,82.23,31.71-82.23h52.5l-59.77,145.3H595.4Z"/><path class="cls-2" d="M722.54,130.36c0-17.5,13.54-31,31.37-31s31.38,13.54,31.38,31-13.54,31-31.38,31S722.54,147.86,722.54,130.36Zm2.64,44.91H745c16.18,0,26.42-.33,37.64-3.3v148.6H725.18Z"/><path class="cls-2" d="M808.4,247.92C808.4,207,846.38,172,888,172c42.26,0,75.62,33,75.62,84.54H867.18c1.65,14.53,11.56,25.76,30.38,25.76,14.86,0,23.45-5.62,27.41-14.86l38.64,21.46c-11.23,20.81-33.69,35-70,35C845.06,323.88,808.4,290.52,808.4,247.92Zm58.78-18.16h38c0-13.21-6.28-21.79-17.83-21.79C874.78,208,868.83,217.54,867.18,229.76Z"/><path class="cls-1" d="M983.42,292.83c0-17.5,13.54-31,31.37-31s31.38,13.54,31.38,31-13.54,31.05-31.38,31.05S983.42,310.34,983.42,292.83Z"/><path class="cls-3" d="M1080.18,175.27H1100c20.81,0,28.4-.66,37.65-3.3v24.11c10.24-15.19,28.73-24.11,50.19-24.11,20.81,0,36.66,8.59,44.25,26.75,10.57-16.84,29.73-26.75,53.83-26.75,30,0,49.87,16.51,49.87,53.17v95.43h-57.46V238.68c0-13.87-5.62-18.17-14.53-18.17-16.18,0-27.08,13.21-27.08,35.34v64.72h-57.46V238.68c0-13.87-5.62-18.17-14.53-18.17-16.18,0-27.08,13.21-27.08,35.34v64.72h-57.46Z"/><path class="cls-3" d="M1361.2,247.92c0-40.95,38-75.95,79.59-75.95,42.26,0,75.62,33,75.62,84.54H1420c1.65,14.53,11.56,25.76,30.38,25.76,14.86,0,23.45-5.62,27.41-14.86l38.64,21.46c-11.23,20.81-33.69,35-70,35C1397.86,323.88,1361.2,290.52,1361.2,247.92ZM1420,229.76h38c0-13.21-6.28-21.79-17.84-21.79C1427.58,208,1421.63,217.54,1420,229.76Z"/></svg>