<svg id="Layer_1" data-name="Layer 1" xmlns="http://www.w3.org/2000/svg" viewBox="0 0 1195 257"><defs><style>.cls-1{fill:#fb4f93;}.cls-2{fill:#2e353a;}</style></defs><rect class="cls-1" x="30" y="198" width="1128" height="14"/><path class="cls-2" d="M30,46.45H75.2c37.24,0,57.38,12.72,57.38,36.1,0,16.72-12.73,28.12-34,31v.38c21.85,1.9,31.17,10.83,31.17,30.4v4.37c0,10.07,1.9,17.48,5.88,23.18H97.81c-3.61-4.18-5.32-10.64-5.32-19.95v-5.13c0-15-4.94-20.71-17.86-20.71H66.46v45.79H30ZM66.46,72.67v28.88h8.17c13.3,0,19.19-4.37,19.19-14.44S87.93,72.67,74.63,72.67Z"/><path class="cls-2" d="M135.62,150.38c0-20.33,21.47-24.13,37.62-26,8.74-.95,13.3-2.09,13.3-7.41,0-4.18-3-6.65-9.69-6.65-7.6,0-13.3,3.23-15.77,8.55l-21.47-12.73C146.83,92.62,163,86.35,181,86.35c23,0,38.57,10.07,38.57,34v51.49H187.49V161.78c-4.75,8.17-12.92,12-23.94,12C146.07,173.75,135.62,164.63,135.62,150.38Zm51.3-6.46V133.47c-1.9,3.23-4.94,4.37-9.69,5.13-3.61.57-10.45,1.9-10.45,8.74,0,4.56,3,7.6,9.31,7.6C182.93,154.94,186.92,151.33,186.92,143.92Z"/><path class="cls-2" d="M233.66,139.36V113.71h-13.3V92.05l.95-.19c12.92-2.66,21.28-12.74,23.18-28.12l.19-1.53h.38c9.31,0,15.2-.18,21.66-1.89V88.25H295.6v25.46H266.72v30.78c0,3.23,1.14,5.51,3.61,5.51,3.61,0,7.79-5.13,9.88-11.78l22.61,13.87C297.69,166,284.58,173.75,269,173.75,247.72,173.75,233.66,160.07,233.66,139.36Z"/><path class="cls-2" d="M295.41,130.05c0-23.56,21.85-43.7,45.79-43.7,24.32,0,43.51,19,43.51,48.64H329.23c.95,8.36,6.65,14.82,17.48,14.82,8.55,0,13.49-3.23,15.77-8.55l22.23,12.35c-6.46,12-19.38,20.14-40.28,20.14C316.5,173.75,295.41,154.56,295.41,130.05Zm33.82-10.45h21.85c0-7.6-3.61-12.54-10.26-12.54C333.6,107.06,330.18,112.57,329.23,119.6Z"/><path class="cls-2" d="M422.33,88.25h11.4c12,0,16.34-.38,21.66-1.9v13.87c5.89-8.74,16.53-13.87,28.88-13.87,12,0,21.09,4.94,25.46,15.39,6.08-9.69,17.1-15.39,31-15.39,17.29,0,28.69,9.5,28.69,30.59v54.91H536.33V124.73c0-8-3.23-10.45-8.36-10.45-9.31,0-15.58,7.6-15.58,20.33v37.24H479.33V124.73c0-8-3.23-10.45-8.36-10.45-9.31,0-15.58,7.6-15.58,20.33v37.24H422.33Z"/><path class="cls-2" d="M601.88,170l-33.44-81.7h33.63l17.29,47.31L637.6,88.25h30.21l-50.73,123.5H584Z"/><path class="cls-2" d="M702,46.45h30.6l38.95,57,39.14-57h28.69v125.4H806.7V106.49l-27,39.52H761.67l-27-39.52v65.36H702Z"/><path class="cls-2" d="M846.4,130.05c0-23.56,22.42-43.7,48.64-43.7s48.65,20.14,48.65,43.7-22.42,43.7-48.65,43.7S846.4,153.61,846.4,130.05Zm63.27,0c0-9.69-6.46-16.53-14.63-16.53s-14.62,6.84-14.62,16.53,6.46,16.53,14.62,16.53S909.67,139.74,909.67,130.05Z"/><path class="cls-2" d="M935.89,88.25h33.63l17.29,47.31,18.24-47.31h30.22l-34.39,83.6H970.29Z"/><path class="cls-2" d="M1033.93,62.41A18.06,18.06,0,1,1,1052,80.27,17.65,17.65,0,0,1,1033.93,62.41Zm1.53,25.84h11.4c9.31,0,15.2-.19,21.66-1.9v85.5h-33.06Z"/><path class="cls-2" d="M1073.83,130.05c0-23.56,21.85-43.7,45.79-43.7,24.33,0,43.51,19,43.51,48.64h-55.48c.95,8.36,6.65,14.82,17.48,14.82,8.55,0,13.49-3.23,15.77-8.55l22.23,12.35c-6.46,12-19.38,20.14-40.28,20.14C1094.92,173.75,1073.83,154.56,1073.83,130.05Zm33.82-10.45h21.85c0-7.6-3.61-12.54-10.26-12.54C1112,107.06,1108.6,112.57,1107.65,119.6Z"/></svg>