<svg id="b0eecec2-b162-4b69-8bef-88e163eb6784" data-name="Layer 1" xmlns="http://www.w3.org/2000/svg" viewBox="0 0 1392 233"><defs><style>.eaaa504f-6499-4a3d-abb6-7066e005b3a6{fill:#fff;}.efc2b199-db39-4408-949d-0b0c8958c977{fill:#fb4f93;}.a5e77f5a-fe9d-4754-883c-32310d610f47{fill:#fbad00;}.eda10097-05ec-4f7d-8b93-4b62becc243a{fill:#0ac700;}</style></defs><path class="eaaa504f-6499-4a3d-abb6-7066e005b3a6" d="M373.59,110.37q-5.5,8.25-16,12.13l24.75,46.58H342.21l-19.73-40.6H309.22v40.6H273.47V57.8h68.1q12,0,20.46,4.61A30.87,30.87,0,0,1,374.8,74.86a35,35,0,0,1,4.29,17.07A32.49,32.49,0,0,1,373.59,110.37ZM339.79,86.1a9.69,9.69,0,0,0-7.12-2.91H309.22v20.54h23.45a9.54,9.54,0,0,0,7.12-3,10.15,10.15,0,0,0,2.91-7.36A9.88,9.88,0,0,0,339.79,86.1Z"/><path class="eaaa504f-6499-4a3d-abb6-7066e005b3a6" d="M467.89,88.29q12.28,6.54,12.29,21.27v33.32a7.48,7.48,0,0,0,1.3,4.53,4.49,4.49,0,0,0,3.88,1.78h5.82v18.6a16.25,16.25,0,0,1-2.51,1.05,41.08,41.08,0,0,1-5.74,1.45,44.62,44.62,0,0,1-8.57.73q-9.39,0-15.45-2.83t-8.33-7.84a52.22,52.22,0,0,1-13.75,7.76A49.62,49.62,0,0,1,419,171Q389,171,389,147.08q0-12.45,6.71-19t19.33-9q12.62-2.43,33-2.43v-4.2a8.9,8.9,0,0,0-3.48-7.6,14.62,14.62,0,0,0-9-2.59,19.44,19.44,0,0,0-8.65,1.78,5.91,5.91,0,0,0-3.64,5.66v.65h-31.7a12,12,0,0,1-.17-2.27Q391.38,96,403,88.85T436,81.74Q455.59,81.74,467.89,88.29ZM427.7,134.87q-6.56,3-6.55,8,0,8.09,11,8.08a18.63,18.63,0,0,0,11.08-3.39q4.77-3.4,4.78-8.41v-7.28Q434.25,131.88,427.7,134.87Z"/><path class="eaaa504f-6499-4a3d-abb6-7066e005b3a6" d="M552.64,83.68v21.83H534.53V138q0,5.83,1.94,8.5t7.12,2.67h9v18.92a55.6,55.6,0,0,1-10,2.1,83.29,83.29,0,0,1-10.68.81q-14.24,0-21.92-5.18t-7.68-17.63v-42.7h-12V83.68h13.26l7-25.88h23.94V83.68Z"/><path class="eaaa504f-6499-4a3d-abb6-7066e005b3a6" d="M644.27,92.74q12.38,11,12.38,33.64v5.5H592.59q0,9.21,4.13,13.91t13,4.69q8.09,0,11.89-3.4a11.55,11.55,0,0,0,3.8-9.06h31.22q0,15.54-11.81,24.27T610.39,171q-23.79,0-36.88-11.08t-13.1-33.56q0-22,12.77-33.32t35.26-11.32Q631.9,81.74,644.27,92.74Zm-51.51,23.93h31.37q0-6.63-3.8-10.51t-10.59-3.88Q594.53,102.28,592.76,116.67Z"/><path class="eaaa504f-6499-4a3d-abb6-7066e005b3a6" d="M851.55,90.07q7.28,8.33,7.28,23.69v55.32H826.64V117.64a13.63,13.63,0,0,0-2.67-8.81,9.12,9.12,0,0,0-7.52-3.32,11.92,11.92,0,0,0-9.22,3.89,13.6,13.6,0,0,0-3.56,9.54v50.14H771.48V117.64a13.63,13.63,0,0,0-2.67-8.81,9.09,9.09,0,0,0-7.52-3.32,11.94,11.94,0,0,0-9.22,3.89,13.59,13.59,0,0,0-3.55,9.54v50.14H716.33V83.68h26.36l2.11,12.78A34,34,0,0,1,757.65,85.7a37.68,37.68,0,0,1,16.91-4q19.25,0,25.88,14.72a36.9,36.9,0,0,1,29.27-14.72Q844.27,81.74,851.55,90.07Z"/><path class="eaaa504f-6499-4a3d-abb6-7066e005b3a6" d="M917.3,193.75q-9.63,9.3-26.93,9.3a54.78,54.78,0,0,1-18.6-2.91V180.89h12.94q12.12,0,14.39-11.81l-34-85.4h34.61l16.34,56.77h1.13l15-56.77H964l-30.41,82.81Q926.92,184.45,917.3,193.75Z"/><path class="eaaa504f-6499-4a3d-abb6-7066e005b3a6" d="M1020.09,57.8H1110V84.49h-54.19v19.08h46.59v25.56h-46.59v40h-35.74Z"/><path class="eaaa504f-6499-4a3d-abb6-7066e005b3a6" d="M1123.6,73.65V51.81h32.19V73.65Zm0,95.43V83.68h32.19v85.4Z"/><path class="eaaa504f-6499-4a3d-abb6-7066e005b3a6" d="M1174.23,169.08V51.81h32.19V169.08Z"/><path class="eaaa504f-6499-4a3d-abb6-7066e005b3a6" d="M1358.94,90.07q7.29,8.33,7.28,23.69v55.32H1334V117.64a13.69,13.69,0,0,0-2.66-8.81,9.12,9.12,0,0,0-7.53-3.32,12,12,0,0,0-9.22,3.89,13.59,13.59,0,0,0-3.55,9.54v50.14h-32.19V117.64a13.63,13.63,0,0,0-2.67-8.81,9.12,9.12,0,0,0-7.52-3.32,11.92,11.92,0,0,0-9.22,3.89,13.6,13.6,0,0,0-3.56,9.54v50.14h-32.19V83.68h26.37l2.1,12.78a33.94,33.94,0,0,1,12.86-10.76,37.64,37.64,0,0,1,16.9-4q19.24,0,25.88,14.72a36.9,36.9,0,0,1,29.28-14.72Q1351.66,81.74,1358.94,90.07Z"/><circle class="efc2b199-db39-4408-949d-0b0c8958c977" cx="66" cy="74" r="50"/><circle class="a5e77f5a-fe9d-4754-883c-32310d610f47" cx="149" cy="154" r="50"/><circle class="eda10097-05ec-4f7d-8b93-4b62becc243a" cx="166" cy="57" r="33"/></svg>