<svg id="Layer_1" data-name="Layer 1" xmlns="http://www.w3.org/2000/svg" viewBox="0 0 1035 189"><defs><style>.cls-1{fill:#fb4f93;}.cls-2{fill:#2e353a;}</style></defs><rect class="cls-1" x="16" y="165" width="1003" height="14"/><path class="cls-2" d="M16,13.45H61.2c37.24,0,57.38,12.72,57.38,36.1,0,16.72-12.73,28.12-34,31v.38c21.85,1.9,31.17,10.83,31.17,30.4v4.37c0,10.07,1.9,17.48,5.88,23.18H83.81c-3.61-4.18-5.32-10.64-5.32-19.95v-5.13c0-15-4.94-20.71-17.86-20.71H52.46v45.79H16ZM52.46,39.67V68.55h8.17c13.3,0,19.19-4.37,19.19-14.44S73.93,39.67,60.63,39.67Z"/><path class="cls-2" d="M121.62,117.38c0-20.33,21.47-24.13,37.62-26,8.74-.95,13.3-2.09,13.3-7.41,0-4.18-3-6.65-9.69-6.65-7.6,0-13.3,3.23-15.77,8.55L125.61,73.11C132.83,59.62,149,53.35,167,53.35c23,0,38.57,10.07,38.57,34v51.49H173.49V128.78c-4.75,8.17-12.92,12-23.94,12C132.07,140.75,121.62,131.63,121.62,117.38Zm51.3-6.46V100.47c-1.9,3.23-4.94,4.37-9.69,5.13-3.61.57-10.45,1.9-10.45,8.74,0,4.56,3,7.6,9.31,7.6C168.93,121.94,172.92,118.33,172.92,110.92Z"/><path class="cls-2" d="M219.66,106.36V80.71h-13.3V59.05l.95-.19c12.92-2.66,21.28-12.74,23.18-28.12l.19-1.53h.38c9.31,0,15.2-.18,21.66-1.89V55.25H281.6V80.71H252.72v30.78c0,3.23,1.14,5.51,3.61,5.51,3.61,0,7.79-5.13,9.88-11.78l22.61,13.87C283.69,133,270.58,140.75,255,140.75,233.72,140.75,219.66,127.07,219.66,106.36Z"/><path class="cls-2" d="M281.41,97.05c0-23.56,21.85-43.7,45.79-43.7,24.32,0,43.51,19,43.51,48.64H315.23c.95,8.36,6.65,14.82,17.48,14.82,8.55,0,13.49-3.23,15.77-8.55l22.23,12.35c-6.46,12-19.38,20.14-40.28,20.14C302.5,140.75,281.41,121.56,281.41,97.05ZM315.23,86.6h21.85c0-7.6-3.61-12.54-10.26-12.54C319.6,74.06,316.18,79.57,315.23,86.6Z"/><path class="cls-2" d="M408.33,55.25h11.4c12,0,16.34-.38,21.66-1.9V67.22c5.89-8.74,16.53-13.87,28.88-13.87,12,0,21.09,4.94,25.46,15.39,6.08-9.69,17.1-15.39,31-15.39,17.29,0,28.69,9.5,28.69,30.59v54.91H522.33V91.73c0-8-3.23-10.45-8.36-10.45-9.31,0-15.58,7.6-15.58,20.33v37.24H465.33V91.73c0-8-3.23-10.45-8.36-10.45-9.31,0-15.58,7.6-15.58,20.33v37.24H408.33Z"/><path class="cls-2" d="M587.88,137l-33.44-81.7h33.63l17.29,47.31L623.6,55.25h30.21l-50.73,123.5H570Z"/><path class="cls-2" d="M688,13.45h89.88V41.57H724.49V65.13H772V93.25h-47.5v45.6H688Z"/><path class="cls-2" d="M781.48,29.41a18.05,18.05,0,0,1,36.1,0,18.05,18.05,0,0,1-36.1,0ZM783,55.25h11.4c9.31,0,15.2-.19,21.66-1.9v85.5H783Z"/><path class="cls-2" d="M827.46,13.45h11.4c11.59,0,16.34-.38,21.66-1.91V138.85H827.46Z"/><path class="cls-2" d="M871.92,55.25h11.4c12,0,16.34-.38,21.66-1.9V67.22c5.89-8.74,16.53-13.87,28.88-13.87,12,0,21.09,4.94,25.46,15.39,6.08-9.69,17.1-15.39,31-15.39,17.29,0,28.69,9.5,28.69,30.59v54.91H985.92V91.73c0-8-3.23-10.45-8.36-10.45-9.31,0-15.58,7.6-15.58,20.33v37.24H928.92V91.73c0-8-3.23-10.45-8.36-10.45-9.31,0-15.58,7.6-15.58,20.33v37.24H871.92Z"/></svg>