<svg id="e914a71a-6291-4b00-aa04-67b2b5c5a4ff" data-name="Layer 1" xmlns="http://www.w3.org/2000/svg" viewBox="0 0 1392 233"><defs><style>.e8adb9a7-8ef9-41f3-aa2e-5b1c1bccfe1f{fill:#fb4f93;}.bb08e9d0-05b0-48ce-b90f-3d574bab2c17{fill:#fbad00;}.b862f798-f38c-4450-a95d-49ec631f7936{fill:#0ac700;}.e5b9d359-f575-4c2a-aca5-9b03007dc547{fill:#2e353a;}</style></defs><circle class="e8adb9a7-8ef9-41f3-aa2e-5b1c1bccfe1f" cx="66" cy="74" r="50"/><circle class="bb08e9d0-05b0-48ce-b90f-3d574bab2c17" cx="149" cy="154" r="50"/><circle class="b862f798-f38c-4450-a95d-49ec631f7936" cx="166" cy="57" r="33"/><path class="e5b9d359-f575-4c2a-aca5-9b03007dc547" d="M322,37.2c35.2,0,50.7,14.3,50.7,39.2,0,16.9-9.7,29-25.3,33.7v.4c9.8,3.5,14.7,9.8,21.1,27.6l13.3,36.8h-36l-10.4-31.2c-4.8-14.1-10.3-19.1-23.2-19.1H299.6v50.3H266.2V37.2ZM299.6,99.3H318c15.5,0,21.6-7,21.6-18.6s-8.3-17.6-23-17.6h-17Z"/><path class="e5b9d359-f575-4c2a-aca5-9b03007dc547" d="M476,113.4v33.8c0,12.8.9,20.9,2.9,27.7h-29a51.8,51.8,0,0,1-1.4-12.8h-.4c-7.5,10.3-18.5,15.3-31.9,15.3-21.2,0-33.8-13-33.8-30.2s10.2-27.2,39-31.7c7.2-1.2,17.6-2.3,23.6-2.7v-3.5c0-11-5.6-15.5-13.7-15.5s-13.7,4.9-13.9,13.8h-31c1-18.6,14.6-34.1,44.9-34.1S476,87.5,476,113.4Zm-31,17a154,154,0,0,0-17.4,1.9c-9.6,2-13.5,5.6-13.5,12.6s4.4,11.2,12.6,11.2c4.8,0,10-1.5,13.5-5s4.8-9.1,4.8-17.2Z"/><path class="e5b9d359-f575-4c2a-aca5-9b03007dc547" d="M547.1,150.1v24.2a69,69,0,0,1-16.2,2.1c-24.6,0-35.4-9.5-35.4-32.7V100H480.2V76.6h15.3V50.1h32.1V76.6h18.6V100H527.6v36.4c0,10.4,3.5,14.7,12.4,14.7A25.3,25.3,0,0,0,547.1,150.1Z"/><path class="e5b9d359-f575-4c2a-aca5-9b03007dc547" d="M616.8,144.7h32.6c-4,18.6-22.4,33.3-48.7,33.3-32.9,0-51-22.3-51-53,0-29,18.3-51.5,50.6-51.5,23.2,0,40.1,12.2,46.8,31.6,2.7,7.3,3.9,15.2,3.9,27.2H581.2c.8,18.4,9.3,24.2,19.1,24.2S615.8,151.5,616.8,144.7Zm-35-30.6h36.9c-1.4-13.7-9.1-19.5-18.4-19.5S583.7,100.2,581.8,114.1Z"/><path class="e5b9d359-f575-4c2a-aca5-9b03007dc547" d="M854.4,114.5v60.4H822.3V118c0-12.7-4.8-18.9-12.9-18.9-9.9,0-15.3,8.7-15.3,25.9v49.9H762V116.7c0-11.6-4.8-17.6-13-17.6-10,0-15.4,8.7-15.4,25.9v49.9H701.5V76.6h29.9V87.8h.4c6.8-9,15.7-13.7,27.7-13.7s23.4,5.6,29,17c7.1-10.4,16.6-17,31.5-17C841.1,74.1,854.4,87.8,854.4,114.5Z"/><path class="e5b9d359-f575-4c2a-aca5-9b03007dc547" d="M927,173.1c-9.9,29.2-22.1,38.9-47.2,38.9a95.3,95.3,0,0,1-16.7-1.7V185.9a31.2,31.2,0,0,0,9.9,1.5c9.1,0,14.9-4.8,14.9-12.7,0-3.5-.6-6-5.4-19L853.7,76.6h34.6l9.5,32.9c3.6,13.4,7.1,27.3,9.8,41h.4c2.7-13.7,6-27.5,9.9-41.2L927,76.6h32.6Z"/><path class="e5b9d359-f575-4c2a-aca5-9b03007dc547" d="M1039.1,65.8V97.5H1096v28.4h-56.9v49h-33.4V37.2h94.7V65.8Z"/><path class="e5b9d359-f575-4c2a-aca5-9b03007dc547" d="M1127.3,81.8a28.3,28.3,0,0,1-16-4.9v98h32.1v-98A28.6,28.6,0,0,1,1127.3,81.8Z"/><path class="e5b9d359-f575-4c2a-aca5-9b03007dc547" d="M1161.1,174.9V37.2h32.1V174.9Z"/><path class="e5b9d359-f575-4c2a-aca5-9b03007dc547" d="M1364,114.5v60.4h-32.1V118c0-12.7-4.8-18.9-13-18.9-9.8,0-15.2,8.7-15.2,25.9v49.9h-32.1V116.7c0-11.6-4.9-17.6-13-17.6-10,0-15.5,8.7-15.5,25.9v49.9H1211V76.6h30V87.8h.4c6.8-9,15.7-13.7,27.7-13.7s23.3,5.6,29,17c7.1-10.4,16.6-17,31.5-17C1350.7,74.1,1364,87.8,1364,114.5Z"/><circle class="e8adb9a7-8ef9-41f3-aa2e-5b1c1bccfe1f" cx="1127.3" cy="53.1" r="16"/></svg>