<svg xmlns="http://www.w3.org/2000/svg" xmlns:xlink="http://www.w3.org/1999/xlink" viewBox="0 0 676.7 628.2"><defs><style>.b5d820b5-dba6-4b03-829f-7f90125ecbef,.bd0b8a2a-dfec-40f3-bfc9-3ac926c0ce26{fill:none;}.bc9dd058-303d-441c-b3c6-3b262a7a01e7{fill:#fff;}.a3a4fda7-5e76-4674-b2f8-9c8f341d4481{fill:#fbad00;}.a6c1e1da-337b-4c0e-9984-3ea48c6eef8d,.a97a7a2d-1316-4672-90ea-bede499f2432,.b083f12c-9f2e-415e-ae00-7ba63b04f7d8,.b991cf83-33c6-4860-9835-9f22102e0c29{opacity:0.2;}.a97a7a2d-1316-4672-90ea-bede499f2432{fill:url(#af7a80f0-54f0-4173-842c-8b9195dff914);}.b083f12c-9f2e-415e-ae00-7ba63b04f7d8{fill:url(#bfafc966-02fa-435e-9dec-2dcba77a4b7a);}.b991cf83-33c6-4860-9835-9f22102e0c29{fill:url(#bd05bccc-0a84-4d1e-a6fc-844573238b39);}.a6c1e1da-337b-4c0e-9984-3ea48c6eef8d{fill:url(#f230b764-44e0-44ea-a288-b5c8ba785b56);}.a470c519-a803-47a1-be03-79bef542f3df{fill:#117dce;}.bd0b8a2a-dfec-40f3-bfc9-3ac926c0ce26{stroke:#fff;stroke-miterlimit:10;stroke-width:2px;}.bb5ba818-ad88-46d7-bc42-72705b6f06c6{fill:#fb4f93;}.ac462b15-d23e-451f-8e1a-d44d7347a47e{fill:#ff7d13;}</style><pattern id="af7a80f0-54f0-4173-842c-8b9195dff914" data-name="New Pattern" width="80" height="80" patternTransform="translate(-55.8 103.6) rotate(180) scale(0.39 0.38)" patternUnits="userSpaceOnUse" viewBox="0 0 80 80"><rect class="b5d820b5-dba6-4b03-829f-7f90125ecbef" width="80" height="80"/><circle class="bc9dd058-303d-441c-b3c6-3b262a7a01e7" cx="40" cy="40" r="7.5"/></pattern><pattern id="bfafc966-02fa-435e-9dec-2dcba77a4b7a" data-name="New Pattern" width="80" height="80" patternTransform="translate(-55.8 133.9) rotate(180) scale(0.39 0.38)" patternUnits="userSpaceOnUse" viewBox="0 0 80 80"><rect class="b5d820b5-dba6-4b03-829f-7f90125ecbef" width="80" height="80"/><circle class="bc9dd058-303d-441c-b3c6-3b262a7a01e7" cx="40" cy="40" r="7.5"/></pattern><pattern id="bd05bccc-0a84-4d1e-a6fc-844573238b39" data-name="New Pattern" width="80" height="80" patternTransform="translate(-53.6 103.6) rotate(180) scale(0.39 0.38)" patternUnits="userSpaceOnUse" viewBox="0 0 80 80"><rect class="b5d820b5-dba6-4b03-829f-7f90125ecbef" width="80" height="80"/><circle class="bc9dd058-303d-441c-b3c6-3b262a7a01e7" cx="40" cy="40" r="7.5"/></pattern><pattern id="f230b764-44e0-44ea-a288-b5c8ba785b56" data-name="New Pattern" width="80" height="80" patternTransform="translate(-53.6 133.9) rotate(180) scale(0.39 0.38)" patternUnits="userSpaceOnUse" viewBox="0 0 80 80"><rect class="b5d820b5-dba6-4b03-829f-7f90125ecbef" width="80" height="80"/><circle class="bc9dd058-303d-441c-b3c6-3b262a7a01e7" cx="40" cy="40" r="7.5"/></pattern></defs><g id="b46ef01c-b7e2-4e78-8ce7-efb28c1e2a56" data-name="Layer 2"><g id="b3cd2182-b07a-455c-a475-58013ee6dec5" data-name="Layer 1"><path class="a3a4fda7-5e76-4674-b2f8-9c8f341d4481" d="M100.6,500.9l255.1,84.3a27.4,27.4,0,0,0,35.5-31.6L336.7,290.5c-4.3-20.6-29.4-28.9-45.1-14.9L91,454.4C75.2,468.4,80.6,494.3,100.6,500.9Z"/><polygon class="a97a7a2d-1316-4672-90ea-bede499f2432" points="337 61.6 676.7 61.6 676.7 270.4 337 270.4 337 61.6"/><polygon class="b083f12c-9f2e-415e-ae00-7ba63b04f7d8" points="337 274.6 676.7 274.6 676.7 483.4 337 483.4 337 274.6"/><polygon class="b991cf83-33c6-4860-9835-9f22102e0c29" points="0 61.6 339.7 61.6 339.7 270.4 0 270.4 0 61.6"/><polygon class="a6c1e1da-337b-4c0e-9984-3ea48c6eef8d" points="0 274.6 339.7 274.6 339.7 483.4 0 483.4 0 274.6"/><path class="a470c519-a803-47a1-be03-79bef542f3df" d="M581.1,194,540.3,14.6a18.7,18.7,0,0,0-31-9.6l-135,125a18.8,18.8,0,0,0,7.2,31.7l175.8,54.4A18.7,18.7,0,0,0,581.1,194Z"/><path class="bd0b8a2a-dfec-40f3-bfc9-3ac926c0ce26" d="M572.2,226.4,531.4,47a18.7,18.7,0,0,0-31-9.6l-135,125a18.8,18.8,0,0,0,7.2,31.7l175.8,54.4A18.8,18.8,0,0,0,572.2,226.4Z"/><path class="bd0b8a2a-dfec-40f3-bfc9-3ac926c0ce26" d="M129.6,541.4l255.1,84.4a27.4,27.4,0,0,0,35.5-31.6L365.7,331.1c-4.3-20.7-29.4-29-45.1-14.9L120,494.9A27.4,27.4,0,0,0,129.6,541.4Z"/><circle class="bd0b8a2a-dfec-40f3-bfc9-3ac926c0ce26" cx="244.5" cy="175.1" r="50"/><circle class="bb5ba818-ad88-46d7-bc42-72705b6f06c6" cx="219.5" cy="198.1" r="50"/><circle class="ac462b15-d23e-451f-8e1a-d44d7347a47e" cx="537" cy="439.6" r="71.5"/><circle class="bd0b8a2a-dfec-40f3-bfc9-3ac926c0ce26" cx="507" cy="410.6" r="71.5"/></g></g></svg>